<svg id="Layer_1" data-name="Layer 1" xmlns="http://www.w3.org/2000/svg" viewBox="0 0 512 512"><defs><style>.cls-1{fill:#bf0811;}.cls-2{fill:#fff;}</style></defs><title>favicon</title><polygon class="cls-1" points="17.17 215.93 510.41 105.26 493.87 295.75 1.91 407.06 17.17 218.47 17.17 215.93"/><path class="cls-2" d="M15.9,214.66,0,409,495.46,297,512,103Zm2.86,3.81v-.95l47.56-10.68L53.43,362.22l59.15-13.68L98.85,383.62,3.5,405.15Zm145.33,86.19,15.27-38.17L170.9,367.35l-34.43,7.78L150.42,340l19.72-4.46,2.54-32.75Zm328.19-9.86-287,64.8,11.65-138.9-59.15,13.68-31.16,78.86L89,321.83l10-122.35,409.44-92Z"/><path class="cls-2" d="M460.48,174.59c0-6,5.09-11.13,11.77-11.13,6.36,0,11.76,5.09,11.76,11.13,0,6.36-5.08,11.13-11.76,11.13a11,11,0,0,1-11.77-11.13m21.94,0a10.18,10.18,0,1,0-10.17,9.86,10.18,10.18,0,0,0,10.17-9.86M478,181h-1.91l-3.81-5.73h-2.86V181H467.8V168.23h5.72a5.78,5.78,0,0,1,3.18.63,3.36,3.36,0,0,1,1.59,2.87c0,2.54-1.91,3.49-4.13,3.49Zm-6-7c1.91,0,4.77.32,4.77-2.22,0-1.91-1.91-2.23-3.5-2.23h-3.81V174Z"/><path class="cls-2" d="M338.37,264.9l23.85-5.4h0l-2.87,32.75-43.56,9.86c-15.59,3.5-14-13.35-14-13.35l6.68-78.87s.32-10.18,9.22-12.4l50.89-11.77-2.23,28.62-23.85,5.41c-7,1.59-7.31,9.22-7.31,9.22L333,257.27s-1.27,9.22,5.41,7.63"/><path class="cls-2" d="M438.22,170.14l-54.06,12.4c-8.59,2.23-8.91,11.77-8.91,11.77l-6.36,75.05s-2.86,19.71,14.63,17.49l49.61-11.45s12.09-2.55,12.72-14l6.36-77c1.59-18.13-14-14.31-14-14.31M418.5,209.57l-3.18,35.3s0,5.41-6.67,6c-7.64.64-6.68-4.13-6.68-4.13l3.18-36.89s0-4.77,6.68-5.09c7.95-.64,6.67,4.77,6.67,4.77"/><polygon class="cls-2" points="302.75 200.98 293.84 307.2 258.54 315.15 245.51 286.21 242.64 318.97 215.61 325.01 224.52 219.11 224.52 219.11 251.55 212.75 269.68 254.09 273.49 207.66 302.75 200.98"/></svg>